<svg width="392" height="420" viewBox="0 0 392 420" fill="none" xmlns="http://www.w3.org/2000/svg">
<path d="M253 36.889L294.515 9L313.674 10.4631L350.402 124.957L305.692 164.595L253 36.889Z" fill="#FF93C8"/>
<path d="M345.276 99L257.573 136.764L226 226.53L249.938 344.568L393.564 419.477V155.336L345.276 99Z" fill="#00672E"/>
<path d="M10.0633 233.845L120.153 8.50394L268.184 0L299.635 121.174L192.09 273.776L94.7609 360.505L0 360.385L0.0233488 286.398L10.0633 233.845Z" fill="#FFE800"/>
<path d="M113 223.194L226.944 322H310.18L380 185.398L354.844 72L256.983 74.8017L216.445 84.6022L113 223.194Z" fill="#0F2CCE"/>
<path d="M90.3857 226.101L81.9249 301.01L147.96 370.347L322.541 382.728L379.702 300.391L295.714 210.211L90.3857 226.101Z" fill="#E31C24"/>
<path d="M85.46 276.869L10 147.02L44.9661 54L143.443 78.8704L226.265 197.667L183.008 273.185L85.46 276.869Z" fill="#00672E"/>
</svg>
